<svg xmlns="http://www.w3.org/2000/svg" viewBox="0 0 32 32" width="32" height="32" shape-rendering="crispEdges">
<rect x="2" y="9" width="28" height="1" fill="#000000"/>
<rect x="2" y="10" width="1" height="1" fill="#000000"/>
<rect x="3" y="10" width="26" height="1" fill="#ffffff"/>
<rect x="29" y="10" width="1" height="1" fill="#000000"/>
<rect x="2" y="11" width="1" height="1" fill="#000000"/>
<rect x="3" y="11" width="1" height="1" fill="#ffffff"/>
<rect x="4" y="11" width="24" height="1" fill="#dddddd"/>
<rect x="28" y="11" width="1" height="1" fill="#aaaaaa"/>
<rect x="29" y="11" width="1" height="1" fill="#000000"/>
<rect x="2" y="12" width="1" height="1" fill="#000000"/>
<rect x="3" y="12" width="1" height="1" fill="#ffffff"/>
<rect x="4" y="12" width="24" height="1" fill="#dddddd"/>
<rect x="28" y="12" width="1" height="1" fill="#aaaaaa"/>
<rect x="29" y="12" width="1" height="1" fill="#000000"/>
<rect x="2" y="13" width="1" height="1" fill="#000000"/>
<rect x="3" y="13" width="1" height="1" fill="#ffffff"/>
<rect x="4" y="13" width="2" height="1" fill="#dddddd"/>
<rect x="6" y="13" width="12" height="1" fill="#aaaaaa"/>
<rect x="18" y="13" width="10" height="1" fill="#dddddd"/>
<rect x="28" y="13" width="1" height="1" fill="#aaaaaa"/>
<rect x="29" y="13" width="1" height="1" fill="#000000"/>
<rect x="2" y="14" width="1" height="1" fill="#000000"/>
<rect x="3" y="14" width="1" height="1" fill="#ffffff"/>
<rect x="4" y="14" width="24" height="1" fill="#dddddd"/>
<rect x="28" y="14" width="1" height="1" fill="#aaaaaa"/>
<rect x="29" y="14" width="1" height="1" fill="#000000"/>
<rect x="2" y="15" width="1" height="1" fill="#000000"/>
<rect x="3" y="15" width="1" height="1" fill="#ffffff"/>
<rect x="4" y="15" width="2" height="1" fill="#dddddd"/>
<rect x="6" y="15" width="12" height="1" fill="#aaaaaa"/>
<rect x="18" y="15" width="10" height="1" fill="#dddddd"/>
<rect x="28" y="15" width="1" height="1" fill="#aaaaaa"/>
<rect x="29" y="15" width="1" height="1" fill="#000000"/>
<rect x="2" y="16" width="1" height="1" fill="#000000"/>
<rect x="3" y="16" width="1" height="1" fill="#ffffff"/>
<rect x="4" y="16" width="24" height="1" fill="#dddddd"/>
<rect x="28" y="16" width="1" height="1" fill="#aaaaaa"/>
<rect x="29" y="16" width="1" height="1" fill="#000000"/>
<rect x="2" y="17" width="1" height="1" fill="#000000"/>
<rect x="3" y="17" width="1" height="1" fill="#ffffff"/>
<rect x="4" y="17" width="2" height="1" fill="#dddddd"/>
<rect x="6" y="17" width="12" height="1" fill="#aaaaaa"/>
<rect x="18" y="17" width="10" height="1" fill="#dddddd"/>
<rect x="28" y="17" width="1" height="1" fill="#aaaaaa"/>
<rect x="29" y="17" width="1" height="1" fill="#000000"/>
<rect x="2" y="18" width="1" height="1" fill="#000000"/>
<rect x="3" y="18" width="1" height="1" fill="#ffffff"/>
<rect x="4" y="18" width="20" height="1" fill="#dddddd"/>
<rect x="24" y="18" width="2" height="1" fill="#339955"/>
<rect x="26" y="18" width="2" height="1" fill="#dddddd"/>
<rect x="28" y="18" width="1" height="1" fill="#aaaaaa"/>
<rect x="29" y="18" width="1" height="1" fill="#000000"/>
<rect x="2" y="19" width="1" height="1" fill="#000000"/>
<rect x="3" y="19" width="1" height="1" fill="#ffffff"/>
<rect x="4" y="19" width="20" height="1" fill="#dddddd"/>
<rect x="24" y="19" width="2" height="1" fill="#339955"/>
<rect x="26" y="19" width="2" height="1" fill="#dddddd"/>
<rect x="28" y="19" width="1" height="1" fill="#aaaaaa"/>
<rect x="29" y="19" width="1" height="1" fill="#000000"/>
<rect x="2" y="20" width="1" height="1" fill="#000000"/>
<rect x="3" y="20" width="1" height="1" fill="#ffffff"/>
<rect x="4" y="20" width="24" height="1" fill="#dddddd"/>
<rect x="28" y="20" width="1" height="1" fill="#aaaaaa"/>
<rect x="29" y="20" width="1" height="1" fill="#000000"/>
<rect x="2" y="21" width="1" height="1" fill="#000000"/>
<rect x="3" y="21" width="26" height="1" fill="#aaaaaa"/>
<rect x="29" y="21" width="1" height="1" fill="#000000"/>
<rect x="2" y="22" width="28" height="1" fill="#000000"/>
</svg>