<svg xmlns="http://www.w3.org/2000/svg" viewBox="0 0 32 32" width="32" height="32" shape-rendering="crispEdges">
<rect x="6" y="2" width="15" height="1" fill="#000000"/>
<rect x="6" y="3" width="1" height="1" fill="#000000"/>
<rect x="7" y="3" width="14" height="1" fill="#ffffff"/>
<rect x="21" y="3" width="1" height="1" fill="#000000"/>
<rect x="6" y="4" width="1" height="1" fill="#000000"/>
<rect x="7" y="4" width="15" height="1" fill="#ffffff"/>
<rect x="22" y="4" width="1" height="1" fill="#000000"/>
<rect x="6" y="5" width="1" height="1" fill="#000000"/>
<rect x="7" y="5" width="16" height="1" fill="#ffffff"/>
<rect x="23" y="5" width="1" height="1" fill="#000000"/>
<rect x="6" y="6" width="1" height="1" fill="#000000"/>
<rect x="7" y="6" width="14" height="1" fill="#ffffff"/>
<rect x="21" y="6" width="2" height="1" fill="#dddddd"/>
<rect x="23" y="6" width="1" height="1" fill="#ffffff"/>
<rect x="24" y="6" width="1" height="1" fill="#000000"/>
<rect x="6" y="7" width="1" height="1" fill="#000000"/>
<rect x="7" y="7" width="14" height="1" fill="#ffffff"/>
<rect x="21" y="7" width="3" height="1" fill="#dddddd"/>
<rect x="24" y="7" width="1" height="1" fill="#ffffff"/>
<rect x="25" y="7" width="1" height="1" fill="#000000"/>
<rect x="6" y="8" width="1" height="1" fill="#000000"/>
<rect x="7" y="8" width="13" height="1" fill="#ffffff"/>
<rect x="20" y="8" width="6" height="1" fill="#000000"/>
<rect x="6" y="9" width="1" height="1" fill="#000000"/>
<rect x="7" y="9" width="18" height="1" fill="#ffffff"/>
<rect x="25" y="9" width="1" height="1" fill="#000000"/>
<rect x="6" y="10" width="1" height="1" fill="#000000"/>
<rect x="7" y="10" width="18" height="1" fill="#ffffff"/>
<rect x="25" y="10" width="1" height="1" fill="#000000"/>
<rect x="6" y="11" width="1" height="1" fill="#000000"/>
<rect x="7" y="11" width="2" height="1" fill="#ffffff"/>
<rect x="9" y="11" width="14" height="1" fill="#000000"/>
<rect x="23" y="11" width="2" height="1" fill="#ffffff"/>
<rect x="25" y="11" width="1" height="1" fill="#000000"/>
<rect x="6" y="12" width="1" height="1" fill="#000000"/>
<rect x="7" y="12" width="2" height="1" fill="#ffffff"/>
<rect x="9" y="12" width="1" height="1" fill="#000000"/>
<rect x="10" y="12" width="2" height="1" fill="#ffffff"/>
<rect x="12" y="12" width="1" height="1" fill="#000000"/>
<rect x="13" y="12" width="2" height="1" fill="#ffffff"/>
<rect x="15" y="12" width="1" height="1" fill="#000000"/>
<rect x="16" y="12" width="2" height="1" fill="#ffffff"/>
<rect x="18" y="12" width="1" height="1" fill="#000000"/>
<rect x="19" y="12" width="2" height="1" fill="#ffffff"/>
<rect x="21" y="12" width="2" height="1" fill="#000000"/>
<rect x="23" y="12" width="2" height="1" fill="#ffffff"/>
<rect x="25" y="12" width="1" height="1" fill="#000000"/>
<rect x="6" y="13" width="1" height="1" fill="#000000"/>
<rect x="7" y="13" width="2" height="1" fill="#ffffff"/>
<rect x="9" y="13" width="14" height="1" fill="#000000"/>
<rect x="23" y="13" width="2" height="1" fill="#ffffff"/>
<rect x="25" y="13" width="1" height="1" fill="#000000"/>
<rect x="6" y="14" width="1" height="1" fill="#000000"/>
<rect x="7" y="14" width="2" height="1" fill="#ffffff"/>
<rect x="9" y="14" width="2" height="1" fill="#000000"/>
<rect x="11" y="14" width="3" height="1" fill="#99ccff"/>
<rect x="14" y="14" width="1" height="1" fill="#000000"/>
<rect x="15" y="14" width="6" height="1" fill="#99ccff"/>
<rect x="21" y="14" width="2" height="1" fill="#000000"/>
<rect x="23" y="14" width="2" height="1" fill="#ffffff"/>
<rect x="25" y="14" width="1" height="1" fill="#000000"/>
<rect x="6" y="15" width="1" height="1" fill="#000000"/>
<rect x="7" y="15" width="2" height="1" fill="#ffffff"/>
<rect x="9" y="15" width="2" height="1" fill="#000000"/>
<rect x="11" y="15" width="3" height="1" fill="#99ccff"/>
<rect x="14" y="15" width="2" height="1" fill="#000000"/>
<rect x="16" y="15" width="5" height="1" fill="#99ccff"/>
<rect x="21" y="15" width="2" height="1" fill="#000000"/>
<rect x="23" y="15" width="2" height="1" fill="#ffffff"/>
<rect x="25" y="15" width="1" height="1" fill="#000000"/>
<rect x="6" y="16" width="1" height="1" fill="#000000"/>
<rect x="7" y="16" width="2" height="1" fill="#ffffff"/>
<rect x="9" y="16" width="2" height="1" fill="#000000"/>
<rect x="11" y="16" width="3" height="1" fill="#99ccff"/>
<rect x="14" y="16" width="3" height="1" fill="#000000"/>
<rect x="17" y="16" width="4" height="1" fill="#99ccff"/>
<rect x="21" y="16" width="2" height="1" fill="#000000"/>
<rect x="23" y="16" width="2" height="1" fill="#ffffff"/>
<rect x="25" y="16" width="1" height="1" fill="#000000"/>
<rect x="6" y="17" width="1" height="1" fill="#000000"/>
<rect x="7" y="17" width="2" height="1" fill="#ffffff"/>
<rect x="9" y="17" width="2" height="1" fill="#000000"/>
<rect x="11" y="17" width="3" height="1" fill="#99ccff"/>
<rect x="14" y="17" width="2" height="1" fill="#000000"/>
<rect x="16" y="17" width="5" height="1" fill="#99ccff"/>
<rect x="21" y="17" width="2" height="1" fill="#000000"/>
<rect x="23" y="17" width="2" height="1" fill="#ffffff"/>
<rect x="25" y="17" width="1" height="1" fill="#000000"/>
<rect x="6" y="18" width="1" height="1" fill="#000000"/>
<rect x="7" y="18" width="2" height="1" fill="#ffffff"/>
<rect x="9" y="18" width="2" height="1" fill="#000000"/>
<rect x="11" y="18" width="3" height="1" fill="#99ccff"/>
<rect x="14" y="18" width="1" height="1" fill="#000000"/>
<rect x="15" y="18" width="6" height="1" fill="#99ccff"/>
<rect x="21" y="18" width="2" height="1" fill="#000000"/>
<rect x="23" y="18" width="2" height="1" fill="#ffffff"/>
<rect x="25" y="18" width="1" height="1" fill="#000000"/>
<rect x="6" y="19" width="1" height="1" fill="#000000"/>
<rect x="7" y="19" width="2" height="1" fill="#ffffff"/>
<rect x="9" y="19" width="14" height="1" fill="#000000"/>
<rect x="23" y="19" width="2" height="1" fill="#ffffff"/>
<rect x="25" y="19" width="1" height="1" fill="#000000"/>
<rect x="6" y="20" width="1" height="1" fill="#000000"/>
<rect x="7" y="20" width="2" height="1" fill="#ffffff"/>
<rect x="9" y="20" width="1" height="1" fill="#000000"/>
<rect x="10" y="20" width="2" height="1" fill="#ffffff"/>
<rect x="12" y="20" width="1" height="1" fill="#000000"/>
<rect x="13" y="20" width="2" height="1" fill="#ffffff"/>
<rect x="15" y="20" width="1" height="1" fill="#000000"/>
<rect x="16" y="20" width="2" height="1" fill="#ffffff"/>
<rect x="18" y="20" width="1" height="1" fill="#000000"/>
<rect x="19" y="20" width="2" height="1" fill="#ffffff"/>
<rect x="21" y="20" width="2" height="1" fill="#000000"/>
<rect x="23" y="20" width="2" height="1" fill="#ffffff"/>
<rect x="25" y="20" width="1" height="1" fill="#000000"/>
<rect x="6" y="21" width="1" height="1" fill="#000000"/>
<rect x="7" y="21" width="2" height="1" fill="#ffffff"/>
<rect x="9" y="21" width="14" height="1" fill="#000000"/>
<rect x="23" y="21" width="2" height="1" fill="#ffffff"/>
<rect x="25" y="21" width="1" height="1" fill="#000000"/>
<rect x="6" y="22" width="1" height="1" fill="#000000"/>
<rect x="7" y="22" width="18" height="1" fill="#ffffff"/>
<rect x="25" y="22" width="1" height="1" fill="#000000"/>
<rect x="6" y="23" width="1" height="1" fill="#000000"/>
<rect x="7" y="23" width="18" height="1" fill="#ffffff"/>
<rect x="25" y="23" width="1" height="1" fill="#000000"/>
<rect x="6" y="24" width="1" height="1" fill="#000000"/>
<rect x="7" y="24" width="18" height="1" fill="#ffffff"/>
<rect x="25" y="24" width="1" height="1" fill="#000000"/>
<rect x="6" y="25" width="1" height="1" fill="#000000"/>
<rect x="7" y="25" width="18" height="1" fill="#ffffff"/>
<rect x="25" y="25" width="1" height="1" fill="#000000"/>
<rect x="6" y="26" width="1" height="1" fill="#000000"/>
<rect x="7" y="26" width="18" height="1" fill="#ffffff"/>
<rect x="25" y="26" width="1" height="1" fill="#000000"/>
<rect x="6" y="27" width="1" height="1" fill="#000000"/>
<rect x="7" y="27" width="18" height="1" fill="#ffffff"/>
<rect x="25" y="27" width="1" height="1" fill="#000000"/>
<rect x="6" y="28" width="1" height="1" fill="#000000"/>
<rect x="7" y="28" width="18" height="1" fill="#ffffff"/>
<rect x="25" y="28" width="1" height="1" fill="#000000"/>
<rect x="6" y="29" width="20" height="1" fill="#000000"/>
</svg>